# xmcd CD database file
#
# Track frame offsets:
#	150
#	13377
#	27178
#	42965
#	57673
#	71439
#	87277
#	98969
#	113275
#	126628
#	147151
#	160617
#	174338
#	190745
#
# Disc length: 2691 seconds
#
# Revision: 1
# Processed by: cddbd v1.5.2PL0 Copyright (c) Steve Scherf et al.
# Submitted via: Feurio! 1.68 - http://www.feurio.com
#
DISCID=ba0a810e
DTITLE=The Real Holy Boys - Runde 3
DYEAR=2005
DGENRE=Rock
TTITLE0=who put the bomp
TTITLE1=er gehört zu mir
TTITLE2=all i have to do is dream
TTITLE3=mendocino
TTITLE4=kansas city
TTITLE5=brauner bär and weisse taube
TTITLE6=bird dog
TTITLE7=hello, mary lou
TTITLE8=there goes (my heart again)
TTITLE9=heimweh
TTITLE10=speedy gonzales
TTITLE11=rock the world
TTITLE12=schizo
TTITLE13=speedy gonzales outtakes
EXTD=
EXTT0=
EXTT1=
EXTT2=
EXTT3=
EXTT4=
EXTT5=
EXTT6=
EXTT7=
EXTT8=
EXTT9=
EXTT10=
EXTT11=
EXTT12=
EXTT13=
PLAYORDER=
